
        <svg xmlns="http://www.w3.org/2000/svg" xmlns:xlink="http://www.w3.org/1999/xlink" version="1.1" width="3162.2384199388666" 
        height="469.5554849430878" viewBox="0 0 3162.2384199388666 469.5554849430878">
			
			<g transform="scale(8.111920996943333) translate(10, 10)">
				<defs id="SvgjsDefs2625"></defs><g id="SvgjsG2626" featureKey="symbolFeature-0" transform="matrix(1.4643146609896254,0,0,1.4643146609896254,-5.771111233449593,-27.819545741160237)" fill="#00adb5"><title xmlns="http://www.w3.org/2000/svg">_</title><g xmlns="http://www.w3.org/2000/svg" data-name="Star Rating"><path d="M37.52,34.82a.16548.16548,0,0,0-.05.13l.75,4.58.34,2.06a.58781.58781,0,0,1-.86.61l-5.63-3.12a.17072.17072,0,0,0-.14,0L26.3,42.2a.58781.58781,0,0,1-.86-.61l.33-2.06.75-4.58a.13714.13714,0,0,0-.04-.13l-4.61-4.73a.58048.58048,0,0,1,.33-.98l3.72-.57h.01l2.62-.4a.15483.15483,0,0,0,.11-.08l2.81-6a.59065.59065,0,0,1,1.06006,0l2.81,6a.15483.15483,0,0,0,.11.08l2.62.4h.01l3.72.57a.58048.58048,0,0,1,.33.98Z"></path><path d="M51.22,32.35,46.5,35.74a.11006.11006,0,0,0-.06.1l-.04,3.15-.04,2.77a.51071.51071,0,0,1-.83.4L41.12,38.6a.09127.09127,0,0,0-.11-.02l-.87.3-.54-3.33,3.96-4.06a2.58028,2.58028,0,0,0-1.45-4.36l-1.15-.18,2.25-3.19a.51032.51032,0,0,1,.91.16l1.19,4.39.34,1.24a.10838.10838,0,0,0,.08.08l5.35,1.81A.518.518,0,0,1,51.22,32.35Z"></path><path d="M59.81,33.71,55.08,36.3a.13257.13257,0,0,0-.06.1l-.74,5.44a.47686.47686,0,0,1-.81006.27l-3.66-3.78a.10136.10136,0,0,0-.1-.03l-1.3.27.02-1.76,3.95-2.84a2.51162,2.51162,0,0,0-.66-4.42l-1.93-.65,3.62-4a.47487.47487,0,0,1,.82.25L55,30.51a.11492.11492,0,0,0,.06.09l4.73,2.27A.47042.47042,0,0,1,59.81,33.71Z"></path><path d="M15.57,36.81l.02,1.76L14.29,38.3a.10136.10136,0,0,0-.1.03l-3.66,3.78A.47686.47686,0,0,1,9.72,41.84L8.98,36.4a.13257.13257,0,0,0-.06-.1L4.19,33.71a.47042.47042,0,0,1,.02-.84L8.94,30.6A.11492.11492,0,0,0,9,30.51l.77-5.36a.47487.47487,0,0,1,.82-.25l3.62,4-1.93.65a2.51162,2.51162,0,0,0-.66,4.42Z"></path><path d="M20.44,31.49l3.96,4.06-.54,3.33-.87-.3a.09127.09127,0,0,0-.11.02l-4.41,3.56a.51071.51071,0,0,1-.83-.4l-.04-2.77-.04-3.15a.11006.11006,0,0,0-.06-.1l-4.72-3.39a.518.518,0,0,1,.14-.91l5.35-1.81a.10838.10838,0,0,0,.08-.08l.34-1.24,1.19-4.39a.51032.51032,0,0,1,.91-.16l2.25,3.19-1.15.18a2.58028,2.58028,0,0,0-1.45,4.36Z"></path></g></g><g id="SvgjsG2627" featureKey="nameFeature-0" transform="matrix(1.2661974354516958,0,0,1.2661974354516958,98.50529539211371,-13.624241223830788)" fill="#eeeeee"><path d="M22.84 11.440000000000001 l0 5.28 l-13.8 0 l0 6.6 l11.96 0 l0 4.88 l-11.96 0 l0 11.8 l-6.28 0 l0 -28.56 l20.08 0 z M31.72 11.440000000000001 l0 4.68 l-5.68 0 l0 -4.68 l5.68 0 z M31.72 19.32 l0 20.68 l-5.68 0 l0 -20.68 l5.68 0 z M40.2 19.32 l4.36 14.12 l0.08 0 l4.36 -14.12 l5.64 0 l-7 20.68 l-6.32 0 l-7.08 -20.68 l5.96 0 z M66.56 18.76 c1.9467 0 3.6801 0.45328 5.2 1.36 s2.7133 2.22 3.58 3.94 s1.3 3.7 1.3 5.94 c0 0.21332 -0.01332 0.56 -0.04 1.04 l-14.92 0 c0.05332 1.6533 0.48664 2.94 1.3 3.86 s2.06 1.38 3.74 1.38 c1.04 0 1.9933 -0.26 2.86 -0.78 s1.42 -1.1533 1.66 -1.9 l5 0 c-1.4667 4.64 -4.6932 6.96 -9.68 6.96 c-1.8933 -0.02668 -3.6466 -0.44 -5.26 -1.24 s-2.9 -2.0467 -3.86 -3.74 s-1.44 -3.66 -1.44 -5.9 c0 -2.1067 0.48668 -4.0268 1.46 -5.76 s2.2666 -3.0266 3.88 -3.88 s3.3533 -1.28 5.22 -1.28 z M70.92 27.439999999999998 c-0.26668 -1.5467 -0.76 -2.6667 -1.48 -3.36 s-1.7467 -1.04 -3.08 -1.04 c-1.3867 0 -2.48 0.39332 -3.28 1.18 s-1.2667 1.86 -1.4 3.22 l9.24 0 z M90.4 10.760000000000002 c3.4933 0 6.2732 0.80004 8.34 2.4 s3.1 3.8667 3.1 6.8 l-6.08 0 c-0.08 -1.44 -0.56668 -2.52 -1.46 -3.24 s-2.2733 -1.08 -4.14 -1.08 c-1.3067 0 -2.36 0.28668 -3.16 0.86 s-1.2 1.3666 -1.2 2.38 c0 0.82668 0.24668 1.4267 0.74 1.8 s1.1933 0.70664 2.1 0.99996 s2.4934 0.72 4.76 1.28 c2.3733 0.58668 4.2 1.2267 5.48 1.92 s2.2533 1.58 2.92 2.66 s1 2.4067 1 3.98 c0 1.8133 -0.48 3.4266 -1.44 4.84 s-2.36 2.4866 -4.2 3.22 s-3.92 1.1 -6.24 1.1 c-3.5467 0 -6.46 -0.88668 -8.74 -2.66 s-3.42 -4.2068 -3.42 -7.3 l0 -0.2 l6.08 0 c0 1.68 0.57332 2.98 1.72 3.9 s2.6667 1.38 4.56 1.38 c1.68 0 3.0333 -0.3 4.06 -0.9 s1.54 -1.4867 1.54 -2.66 c0 -0.77332 -0.28 -1.4266 -0.84 -1.96 s-1.3067 -0.96664 -2.24 -1.3 s-2.5066 -0.75332 -4.72 -1.26 c-2.56 -0.64 -4.4268 -1.32 -5.6 -2.04 s-2.0666 -1.5933 -2.68 -2.62 s-0.92 -2.26 -0.92 -3.7 c0 -1.7867 0.51332 -3.3467 1.54 -4.68 s2.3667 -2.32 4.02 -2.96 s3.36 -0.96 5.12 -0.96 z M113.12000000000002 13.120000000000001 l0.000039062 6.2 l4.16 0 l0 3.8 l-4.16 0 l0 10.24 c0 0.96 0.16 1.6 0.48 1.92 s0.96 0.48 1.92 0.48 c0.69332 0 1.28 -0.05332 1.76 -0.16 l0 4.44 c-0.8 0.13332 -1.92 0.2 -3.36 0.2 c-2.1867 0 -3.8134 -0.37332 -4.88 -1.12 s-1.6 -2.04 -1.6 -3.88 l0 -12.12 l-3.44 0 l0 -3.8 l3.44 0 l0 -6.2 l5.68 0 z M129.52 18.76 c6.0268 0.02668 9.04 1.9866 9.04 5.88 l0 10.96 c0 2.0267 0.24 3.4934 0.72 4.4 l-5.76 0 c-0.21332 -0.64 -0.34664 -1.3067 -0.39996 -2 c-1.68 1.7067 -4 2.56 -6.96 2.56 c-2.16 0 -3.8733 -0.54668 -5.14 -1.64 s-1.9 -2.6133 -1.9 -4.56 c0 -1.8933 0.6 -3.36 1.8 -4.4 c1.2267 -1.0933 3.4534 -1.7866 6.68 -2.08 c2.2933 -0.24 3.7466 -0.54 4.36 -0.9 s0.92 -0.91332 0.92 -1.66 c0 -0.93332 -0.28 -1.6266 -0.84 -2.08 s-1.4933 -0.68 -2.8 -0.68 c-1.2 0 -2.1067 0.24668 -2.72 0.74 s-0.97332 1.2866 -1.08 2.38 l-5.68 0 c0.13332 -2.2667 1.0666 -3.9867 2.8 -5.16 s4.0532 -1.76 6.96 -1.76 z M124.80000000000001 34.12 c0 1.76 1.16 2.64 3.48 2.64 c3.04 -0.02668 4.5732 -1.5867 4.6 -4.68 l0 -2.2 c-0.45332 0.45332 -1.6 0.78664 -3.44 0.99996 c-1.6 0.18668 -2.7733 0.51336 -3.52 0.98004 s-1.12 1.22 -1.12 2.26 z M155.04000000000002 18.76 c0.48 0 0.89336 0.06668 1.24 0.2 l0 5.28 c-0.61332 -0.13332 -1.2933 -0.2 -2.04 -0.2 c-3.7333 0 -5.6 2.2133 -5.6 6.64 l0 9.32 l-5.68 0 l0 -20.68 l5.4 0 l0 3.84 l0.08 0 c0.56 -1.3333 1.4467 -2.4 2.66 -3.2 s2.5266 -1.2 3.94 -1.2 z M167 18.76 c2.7733 0 4.94 0.56004 6.5 1.68 s2.4333 2.76 2.62 4.92 l-5.4 0 c-0.08 -0.98668 -0.44 -1.7 -1.08 -2.14 s-1.5733 -0.66 -2.8 -0.66 c-1.0667 0 -1.86 0.16 -2.38 0.48 s-0.78 0.8 -0.78 1.44 c0 0.48 0.17332 0.88 0.52 1.2 s0.87336 0.6 1.58 0.84 s1.4867 0.44 2.34 0.6 c2.5867 0.50668 4.4132 1.0267 5.48 1.56 s1.8467 1.1733 2.34 1.92 s0.74 1.6667 0.74 2.76 c0 2.32 -0.84668 4.1 -2.54 5.34 s-3.9933 1.86 -6.9 1.86 c-3.04 0 -5.4068 -0.65332 -7.1 -1.96 s-2.5666 -3.08 -2.62 -5.32 l5.4 0 c0 1.0667 0.41332 1.9134 1.24 2.54 s1.8667 0.94 3.12 0.94 c1.0667 0 1.9534 -0.23332 2.66 -0.7 s1.06 -1.1134 1.06 -1.94 c0 -0.53332 -0.22 -0.97332 -0.66 -1.32 s-1.06 -0.65336 -1.86 -0.92004 s-2.04 -0.57336 -3.72 -0.92004 c-1.3333 -0.26668 -2.52 -0.62668 -3.56 -1.08 s-1.8333 -1.0466 -2.38 -1.78 s-0.82 -1.6333 -0.82 -2.7 c0 -1.36 0.32668 -2.5467 0.98 -3.56 s1.6533 -1.78 3 -2.3 s3.02 -0.78 5.02 -0.78 z M194.84 11.440000000000001 l10.68 28.56 l-6.52 0 l-2.16 -6.36 l-10.68 0 l-2.24 6.36 l-6.36 0 l10.84 -28.56 l6.44 0 z M191.52 18.48 l-3.72 10.48 l7.4 0 l-3.6 -10.48 l-0.08 0 z M214.28 11.440000000000001 l0 28.56 l-6.28 0 l0 -28.56 l6.28 0 z"></path></g>
			</g>
		</svg>
	